<svg 
          width="45.000003814697266" 
          height="33.33333206176758" fill="none" 
          xmlns="http://www.w3.org/2000/svg">
          <path d="M 29.812499684095414 4.999999809265137 C 29.02499970585111 4.999999809265137 28.35900074368121 4.798333287978167 27.81450075240137 4.394999972216283 C 27.270000761121526 3.9916666564543988 26.998499713929693 3.4988887763447227 26.999999713897733 2.9166665554046634 C 26.999999713897733 2.3333332542578376 27.272249525135784 1.8399999085505812 27.816749516415626 1.436666592788697 C 28.36124950769547 1.0333332770268129 29.026499664171567 0.8322221904873641 29.812499684095414 0.8333333015441895 C 30.59999966233972 0.8333333015441895 31.266000770276804 1.0349998228311592 31.810500761556646 1.4383331385930433 C 32.35500075283649 1.8416664543549275 32.62649965426113 2.334444334464604 32.62499965429309 2.9166665554046634 C 32.62499965429309 3.499999856551489 32.35274769728785 3.9933332022587456 31.80824770600801 4.39666651802063 C 31.26374771472817 4.799999833782514 30.59849970401926 5.001110920321962 29.812499684095414 4.999999809265137 Z M 29.812499684095414 32.49999876022339 C 29.02499970585111 32.49999876022339 28.35900074368121 32.29833064947928 27.81450075240137 31.894997333717402 C 27.270000761121526 31.491664017955518 26.998499713929693 30.99888772730298 26.999999713897733 30.416665506362918 C 26.999999713897733 29.83333220521609 27.272249525135784 29.339998064780268 27.816749516415626 28.936664749018384 C 28.36124950769547 28.5333314332565 29.026499664171567 28.33222114144562 29.812499684095414 28.333332252502444 C 30.59999966233972 28.333332252502444 31.266000770276804 28.535000363246546 31.810500761556646 28.93833367900843 C 32.35500075283649 29.341666994770314 32.62649965426113 29.834443285422857 32.62499965429309 30.416665506362918 C 32.62499965429309 30.999998807509744 32.35274769728785 31.493332947945564 31.80824770600801 31.89666626370745 C 31.26374771472817 32.29999957946933 30.59849970401926 32.501109871280214 29.812499684095414 32.49999876022339 Z M 38.81249958872799 10.833332920074463 C 38.02499961048368 10.833332920074463 37.3589985025466 10.631666398787495 36.814498511266756 10.22833308302561 C 36.26999851998691 9.824999767263726 35.99849961856227 9.332221887154049 35.99999961853031 8.74999966621399 C 35.99999961853031 8.166666365067163 36.27225157553555 7.673333019359908 36.81675156681539 7.269999703598024 C 37.36125155809523 6.86666638783614 38.02649956880414 6.665555301296691 38.81249958872799 6.666666412353516 C 39.59999956697229 6.666666412353516 40.26600067490938 6.8683329336404855 40.81050066618922 7.27166624940237 C 41.35500065746906 7.674999565164254 41.62649955889371 8.16777744527393 41.62499955892567 8.74999966621399 C 41.62499955892567 9.333332967360816 41.35274760192043 9.826665518339505 40.808247610640585 10.229998834101389 C 40.26374761936074 10.633332149863273 39.598499608651835 10.834444031131289 38.81249958872799 10.833332920074463 Z M 38.81249958872799 26.666665649414064 C 38.02499961048368 26.666665649414064 37.3589985025466 26.464997538669962 36.814498511266756 26.061664222908078 C 36.26999851998691 25.658330907146194 35.99849961856227 25.16555461649365 35.99999961853031 24.58333239555359 C 35.99999961853031 23.999999094406764 36.27225157553555 23.506666543428075 36.81675156681539 23.10333322766619 C 37.36125155809523 22.699999911904307 38.02649956880414 22.49888803063629 38.81249958872799 22.499999141693117 C 39.59999956697229 22.499999141693117 40.26600067490938 22.701665662980087 40.81050066618922 23.10499897874197 C 41.35500065746906 23.508332294503855 41.62649955889371 24.00111017461353 41.62499955892567 24.58333239555359 C 41.62499955892567 25.166665696700417 41.35274760192043 25.65999983713624 40.808247610640585 26.063333152898124 C 40.26374761936074 26.46666646866001 39.598499608651835 26.66777676047089 38.81249958872799 26.666665649414064 Z M 42.18749955296521 18.749999284744263 C 41.3999995747209 18.749999284744263 40.73399846678382 18.548332763457292 40.189498475503974 18.144999447695408 C 39.64499848422413 17.741666131933524 39.37349958279949 17.24888825182385 39.37499958276753 16.66666603088379 C 39.37499958276753 16.083332729736963 39.64725153977277 15.590000178758274 40.19175153105261 15.18666686299639 C 40.73625152233245 14.783333547234506 41.40149953304136 14.58222166596649 42.18749955296521 14.583332777023315 C 42.97499953120951 14.583332777023315 43.6410006391466 14.784999298310286 44.18550063042644 15.18833261407217 C 44.73000062170628 15.591665929834054 45.001499523130924 16.08444380994373 44.999999523162884 16.66666603088379 C 44.999999523162884 17.249999332030615 44.727747566157646 17.743331883009304 44.183247574877804 18.14666519877119 C 43.63874758359796 18.549998514533073 42.973499572889054 18.75111039580109 42.18749955296521 18.749999284744263 Z M 22.499999761581442 33.33333206176758 C 19.38749981244407 33.33333206176758 16.462500755389538 32.8955541420089 13.725000712871557 32.01999860051474 C 10.987500670353576 31.14444305902058 8.60625028431416 29.95722239180666 6.5812503594160106 28.458333519299778 C 4.55625043451786 26.958333616256667 2.953500209744772 25.194442900551714 1.773000221538543 23.166665147145615 C 0.5925002333323142 21.138887393739516 0.0014999999680401154 18.972221485243903 0 16.66666603088379 C 0 14.361110576523675 0.5910002079566303 12.194444668028064 1.773000221538543 10.166666914621965 C 2.9550002351204556 8.138889161215866 4.557750325783095 6.375000034968048 6.5812503594160106 4.875000131924935 C 8.60625028431416 3.375000228881822 10.987500670353576 2.187777872869697 13.725000712871557 1.3133334612528416 C 16.462500755389538 0.4388890496359863 19.38749981244407 0.0011111110568253536 22.499999761581442 0 L 22.499999761581442 3.333333206176758 C 17.474999779065467 3.333333206176758 13.218749323487302 4.624999585151682 9.731249467730537 7.208332740465813 C 6.243749611973772 9.791665895779943 4.499999952316289 12.944443924162124 4.499999952316289 16.66666603088379 C 4.499999952316289 20.388888137605456 6.243749611973772 23.5416645765305 9.731249467730537 26.124997731844633 C 13.218749323487302 28.708330887158766 17.474999779065467 29.99999885559082 22.499999761581442 29.99999885559082 L 22.499999761581442 33.33333206176758 Z M 22.499999761581442 19.99999923706055 C 21.262499747872372 19.99999923706055 20.203500473992044 19.67388833018408 19.323000464725506 19.021666119066868 C 18.44250045545897 18.369443907949655 18.001499809233195 17.584443812327912 17.999999809265155 16.66666603088379 C 17.999999809265155 16.52777714315388 18.009748763022106 16.38222145132489 18.029248761820824 16.229999241002407 C 18.048748760619542 16.077777030679922 18.095249375436726 15.931666692817188 18.16874937832358 15.791666700045244 L 13.499999856948866 12.333332227071152 L 16.649998965263393 9.999999618530275 L 21.318750632405294 13.458332502047234 C 21.468750638638948 13.430554723880372 21.862499772806984 13.38888838104076 22.499999761581442 13.333332824707032 C 23.737499775290512 13.333332824707032 24.79725000063183 13.659999991909645 25.679249968218826 14.313333283233625 C 26.561249935805822 14.966666574557605 27.001499713865773 15.751110509194268 26.999999713897733 16.66666603088379 C 26.999999713897733 17.58333268245061 26.559749977485364 18.368332827742886 25.679249968218826 19.021666119066868 C 24.79874995895229 19.67499941039085 23.738999800666196 20.001110348117376 22.499999761581442 19.99999923706055 Z" fill="rgb(182.74999290704727,138.58541876077652,138.58541876077652)"/>
        </svg>