<svg 
          width="42" 
          height="42" fill="none" 
          xmlns="http://www.w3.org/2000/svg">
          <path d="M 38.73333422342937 42 L 24.033333778381348 27.299999554951988 C 22.86666711171468 28.233332902193073 21.524999499320984 28.97222132980824 20.00833288828532 29.51666577657064 C 18.491666277249657 30.061110223333042 16.877777814865112 30.333333333333332 15.166666666666668 30.333333333333336 C 10.927777647972107 30.333333333333336 7.340666731198629 28.86488989988963 4.405333360036215 25.928001085917156 C 1.4699999888738002 22.991112271944683 0.0015555555388952296 19.40399996439616 0 15.166666666666668 C 0 10.927777647972107 1.4684445460637416 7.340666731198629 4.405333360036215 4.405333360036215 C 7.342222174008688 1.4699999888738002 10.929333368937176 0.0015555555388952296 15.166666666666668 0 C 19.40555568536123 0 22.993444323539734 1.4684445460637416 25.930333137512207 4.405333360036215 C 28.86722195148468 7.342222174008688 30.334888888872232 10.929333368937176 30.333333333333336 15.166666666666668 C 30.333333333333336 16.877777814865112 30.061110223333042 18.491666277249657 29.51666577657064 20.00833288828532 C 28.97222132980824 21.524999499320984 28.233332902193073 22.86666711171468 27.299999554951988 24.033333778381348 L 42 38.73333422342937 L 38.73333422342937 42 Z M 15.166666666666668 25.666666666666668 C 18.083333333333336 25.666666666666668 20.562888304392498 24.646221637725834 22.605332692464195 22.605332692464195 C 24.647777080535892 20.564443747202557 25.668222222205564 18.084888776143394 25.666666666666668 15.166666666666668 C 25.666666666666668 12.25 24.646221637725834 9.771222750345867 22.605332692464195 7.730333805084229 C 20.564443747202557 5.689444859822592 18.084888776143394 4.6682222222055625 15.166666666666668 4.666666666666667 C 12.25 4.666666666666667 9.771222750345867 5.687889417012533 7.730333805084229 7.730333805084229 C 5.689444859822592 9.772778193155926 4.6682222222055625 12.251555442810059 4.666666666666667 15.166666666666668 C 4.666666666666667 18.083333333333336 5.687889417012533 20.562888304392498 7.730333805084229 22.605332692464195 C 9.772778193155926 24.647777080535892 12.251555442810059 25.668222222205564 15.166666666666668 25.666666666666668 Z" fill="rgb(255,251.00000023841858,251.00000023841858)"/>
        </svg>