<svg 
          width="19" 
          height="33" fill="none" 
          xmlns="http://www.w3.org/2000/svg">
          <path d="M 6.363534414622979 28.049999999999997 L 11.136185225590214 28.049999999999997 L 11.136185225590214 33 L 6.363534414622979 33 L 6.363534414622979 28.049999999999997 Z M 9.545301621934469 0 C 18.05652874977422 0.3629999980330467 21.763287804213526 9.272999811172486 16.70427783838532 15.95550012588501 C 15.383844473901785 17.60550012588501 13.252060581549722 18.694500169157983 12.202077361414348 20.08050012588501 C 11.136185320414265 21.450000098347665 11.136185225590214 23.1 11.136185225590214 24.75 L 6.363534414622979 24.75 C 6.363534414622979 21.994500070810318 6.363534509447032 19.66800012588501 7.429426550447115 18.01800012588501 C 8.479409770582489 16.36800012588501 10.611193662934554 15.39450016915798 11.931627027418086 14.30550012588501 C 15.781565469639775 10.609500110149384 14.827035079868603 5.378999984264373 9.545301621934469 4.949999999999999 C 8.27951592760601 4.949999999999999 7.065572913148196 5.471516516804694 6.17052726325249 6.399821591377258 C 5.275481613356784 7.328126665949821 4.772650810967234 8.587178376317024 4.772650810967234 9.899999999999999 L 0 9.899999999999999 C 1.4129884850217998e-15 7.274356752634047 1.0056631219639334 4.756252938508988 2.7957544217553445 2.899642789363861 C 4.585845721546756 1.0430326402187347 7.013730233277549 2.1982415887578096e-15 9.545301621934469 0 Z" fill="rgb(244.729166328907,238.27104806900024,238.27104806900024)"/>
        </svg>